<?xml version="1.0" encoding="utf-8"?>
<!-- Generator: Adobe Illustrator 16.0.0, SVG Export Plug-In . SVG Version: 6.00 Build 0)  -->
<!DOCTYPE svg PUBLIC "-//W3C//DTD SVG 1.1//EN" "http://www.w3.org/Graphics/SVG/1.1/DTD/svg11.dtd">
<svg version="1.1" id="Capa_1" xmlns="http://www.w3.org/2000/svg" xmlns:xlink="http://www.w3.org/1999/xlink" x="0px" y="0px"
	 width="512px" height="512px" viewBox="0 0 512 512" enable-background="new 0 0 512 512" xml:space="preserve">
<g>
	<g>
		<path d="M256,0C114.609,0,0,114.609,0,256c0,141.391,114.609,256,256,256c141.391,0,256-114.609,256-256
			C512,114.609,397.391,0,256,0z M256,472c-119.297,0-216-96.703-216-216S136.703,40,256,40s216,96.703,216,216S375.297,472,256,472
			z"/>
	</g>
</g>
<path d="M255,501 M255-9 M313.172,162.328c-42.585,0-44.625,38.027-44.625,45.422c0,21.19,13.158,32.188,19.125,35.859
	c-6.809,3.723-21.516,14.956-21.516,39.844c0,10.302,2.748,47.016,47.016,47.016c17.11,0,47.016-8.357,47.016-47.016
	c0-23.435-15.58-36.019-22.312-39.844C343.766,239.938,357,229.323,357,207.75C357,200.355,355.272,162.328,313.172,162.328z
	 M201.609,164.719l-55.781,107.578l1.594,19.922h54.188v35.859h31.875v-35.859h13.547v-26.297h-13.547V164.719H201.609z
	 M313.172,188.625c10.531,0,11.953,15.166,11.953,21.516c0,6.426-1.651,20.719-11.953,20.719c-11.603,0-12.75-14.293-12.75-20.719
	C300.422,203.536,302.156,188.625,313.172,188.625z M201.609,211.734v54.188h-24.703l23.906-53.391L201.609,211.734z
	 M308.391,257.953c1.367-0.451,3.044,0,4.781,0c12.674,0,15.141,15.842,15.141,23.109c0,7.242-1.982,23.109-15.141,23.109
	c-13.744,0-15.141-15.842-15.141-23.109C298.031,274.703,298.821,261.107,308.391,257.953z"/>
</svg>
