<?xml version="1.0" encoding="utf-8"?>
<!-- Generator: Adobe Illustrator 21.0.2, SVG Export Plug-In . SVG Version: 6.00 Build 0)  -->
<svg version="1.1" id="Layer_1" xmlns="http://www.w3.org/2000/svg" xmlns:xlink="http://www.w3.org/1999/xlink" x="0px" y="0px"
	 viewBox="0 0 168.8 70.5" style="enable-background:new 0 0 168.8 70.5;" xml:space="preserve">
<style type="text/css">
	.st0{fill-rule:evenodd;clip-rule:evenodd;}
</style>
<g>
	<g>
		<path class="st0" d="M44.2,38.9h2.4l1.9,8.3l2.3-8.3h2l2.4,8.3l1.9-8.3h2.4l-2.9,13h-2.4l-2.4-8.4l-2.3,8.4h-2.3L44.2,38.9
			L44.2,38.9z M65.6,42.1c0.9,0,1.8,0.2,2.6,0.7c0.8,0.5,1.4,1.1,1.9,1.8c0.4,0.8,0.7,1.6,0.7,2.5c0,0.9-0.2,1.7-0.7,2.5
			c-0.5,0.8-1.1,1.4-1.8,1.8c-0.8,0.4-1.6,0.7-2.6,0.7c-1.4,0-2.6-0.5-3.5-1.5c-1-1-1.5-2.2-1.5-3.6c0-1.5,0.6-2.7,1.7-3.7
			C63.3,42.5,64.4,42.1,65.6,42.1L65.6,42.1z M65.7,44.3c-0.7,0-1.4,0.3-1.9,0.8c-0.5,0.5-0.7,1.2-0.7,2c0,0.8,0.2,1.5,0.7,2
			c0.5,0.5,1.1,0.8,1.9,0.8c0.8,0,1.4-0.3,1.9-0.8c0.5-0.5,0.7-1.2,0.7-2c0-0.8-0.2-1.5-0.7-2C67.1,44.6,66.4,44.3,65.7,44.3
			L65.7,44.3z M72.1,42.3h2.1v1.2c0.2-0.5,0.5-0.8,0.9-1.1c0.4-0.2,0.8-0.4,1.2-0.4c0.3,0,0.6,0.1,1,0.2l-0.7,2.1
			c-0.3-0.1-0.5-0.2-0.7-0.2c-0.4,0-0.7,0.2-0.9,0.7c-0.3,0.5-0.4,1.4-0.4,2.7l0,0.5v3.9h-2.4V42.3L72.1,42.3z M85.6,38.6H88v13.3
			h-2.4v-1c-0.5,0.4-0.9,0.8-1.4,1c-0.5,0.2-1,0.3-1.5,0.3c-1.2,0-2.3-0.5-3.2-1.4c-0.9-1-1.4-2.1-1.4-3.6c0-1.5,0.4-2.7,1.3-3.6
			c0.9-0.9,1.9-1.4,3.2-1.4c0.6,0,1.1,0.1,1.6,0.3c0.5,0.2,1,0.5,1.4,1V38.6L85.6,38.6z M83,44.3c-0.7,0-1.4,0.3-1.9,0.8
			c-0.5,0.5-0.7,1.2-0.7,2c0,0.8,0.2,1.5,0.8,2c0.5,0.5,1.1,0.8,1.9,0.8c0.8,0,1.4-0.3,1.9-0.8c0.5-0.5,0.7-1.2,0.7-2.1
			c0-0.8-0.2-1.5-0.7-2C84.4,44.5,83.8,44.3,83,44.3L83,44.3z M90.7,46h4.5v2.2h-4.5V46L90.7,46z M99.9,43.1h-2.4
			c0.1-1.4,0.5-2.5,1.3-3.3c0.8-0.8,1.9-1.2,3.1-1.2c0.8,0,1.5,0.2,2.1,0.5c0.6,0.3,1.1,0.8,1.4,1.4c0.4,0.6,0.5,1.3,0.5,1.9
			c0,0.8-0.2,1.6-0.7,2.5c-0.4,0.9-1.2,1.9-2.4,3.1l-1.5,1.5h4.6v2.3h-9v-1.2l4-4.1c1-1,1.6-1.8,1.9-2.4c0.3-0.6,0.5-1.1,0.5-1.6
			c0-0.5-0.2-0.9-0.5-1.2c-0.3-0.3-0.8-0.5-1.3-0.5c-0.5,0-1,0.2-1.3,0.6C100.1,41.9,99.9,42.4,99.9,43.1L99.9,43.1z M108.4,46h4.5
			v2.2h-4.5V46L108.4,46z M115.9,38.9h2.5v4.5l3.5-4.5h3l-4.5,5.8l5,7.2h-2.9l-4-5.8v5.8h-2.5V38.9L115.9,38.9z M127.8,38.4
			c0.4,0,0.8,0.2,1.1,0.5c0.3,0.3,0.5,0.7,0.5,1.1c0,0.4-0.2,0.8-0.4,1.1c-0.3,0.3-0.7,0.5-1.1,0.5c-0.4,0-0.8-0.2-1.1-0.5
			c-0.3-0.3-0.5-0.7-0.5-1.1c0-0.4,0.2-0.8,0.4-1.1C127,38.5,127.4,38.4,127.8,38.4L127.8,38.4z M126.6,42.3h2.4v9.6h-2.4V42.3
			L126.6,42.3z M131.2,42.3h2.4v1c0.5-0.5,1-0.8,1.5-1c0.4-0.2,0.9-0.3,1.4-0.3c1,0,1.8,0.3,2.4,1c0.6,0.6,0.8,1.4,0.8,2.5v6.3h-2.4
			v-4.2c0-1.1-0.1-1.9-0.2-2.3c-0.1-0.4-0.3-0.7-0.5-0.9c-0.3-0.2-0.6-0.3-0.9-0.3c-0.5,0-0.9,0.2-1.3,0.5c-0.3,0.3-0.6,0.8-0.7,1.3
			c-0.1,0.3-0.1,0.9-0.1,1.9v3.8h-2.4V42.3L131.2,42.3z M149.1,38.6h2.4v13.3h-2.4v-1c-0.5,0.4-0.9,0.8-1.4,1
			c-0.5,0.2-1,0.3-1.5,0.3c-1.2,0-2.3-0.5-3.2-1.4c-0.9-1-1.4-2.1-1.4-3.6c0-1.5,0.4-2.7,1.3-3.6c0.9-0.9,1.9-1.4,3.2-1.4
			c0.6,0,1.1,0.1,1.6,0.3c0.5,0.2,1,0.5,1.4,1V38.6L149.1,38.6z M146.6,44.3c-0.7,0-1.4,0.3-1.9,0.8c-0.5,0.5-0.7,1.2-0.7,2
			c0,0.8,0.2,1.5,0.8,2c0.5,0.5,1.1,0.8,1.9,0.8c0.8,0,1.4-0.3,1.9-0.8c0.5-0.5,0.7-1.2,0.7-2.1c0-0.8-0.2-1.5-0.7-2
			C148,44.5,147.3,44.3,146.6,44.3L146.6,44.3z M153.7,38.6h2.4v13.3h-2.4V38.6L153.7,38.6z M167.9,47.8h-7.7
			c0.1,0.7,0.4,1.2,0.9,1.6c0.5,0.4,1.1,0.6,1.8,0.6c0.9,0,1.7-0.3,2.3-0.9l2,1c-0.5,0.7-1.1,1.2-1.8,1.6c-0.7,0.3-1.5,0.5-2.5,0.5
			c-1.5,0-2.7-0.5-3.7-1.4c-0.9-0.9-1.4-2.1-1.4-3.6c0-1.5,0.5-2.7,1.4-3.6c0.9-1,2.1-1.4,3.5-1.4c1.5,0,2.7,0.5,3.7,1.4
			c0.9,1,1.4,2.2,1.4,3.8L167.9,47.8L167.9,47.8z M165.5,45.9c-0.2-0.5-0.5-1-0.9-1.3c-0.5-0.3-1-0.5-1.6-0.5
			c-0.7,0-1.3,0.2-1.8,0.6c-0.3,0.2-0.6,0.6-0.9,1.2H165.5z"/>
		<path class="st0" d="M12.9,69.8c1.9-5.6,2.6-8.3,6.1-12.8c0.5-0.6,0.9-0.9,1.4-1.4C19.6,52.6,8,21.8,7.4,21.1
			c-3,2.9-5.1,6.6-6.5,10.8c-1.2,3.6-1.3,3,0.1,6.5c0.8,2.1,1.6,4.2,2.4,6.3C3.9,46.1,12.5,69.1,12.9,69.8z"/>
		<path class="st0" d="M25.7,55.6c-3.1,1.5-6.3,6-8.3,8.7c-0.7,0.9-1.7,2.5-2.2,3.5c0.7-0.3,13.1-11.5,16.7-12.2
			c-0.2-1.2-1.1-3.3-1.6-4.5l-8.5-22.2c-0.7-1.8-2.8-7.3-3.6-8.6c-1.3,0.3-2.8,2-3.5,2.9c-1.5,2-0.9,2.3,0,4.5l7.4,18.4
			C22.8,48,25.4,54.2,25.7,55.6z"/>
		<path class="st0" d="M35.9,55.6l-4.6,2.2c-3.4,1.9-7,4.6-10,7c-0.5,0.4-1.5,1.1-1.8,1.6c1-0.4,8.5-4.5,10.3-5.4
			c2.5-1.2,8.2-4.5,10.9-4.9c-0.6-2.7-2-6.1-2.9-8.8C37,45.4,33.4,34.9,30.8,28h-4.1v-5.2c-0.6,0.5-1.2,1.1-1.7,1.9
			c-0.8,1.3-0.5,1.3,0.7,4.3C26.8,31.5,35.6,53.7,35.9,55.6z"/>
	</g>
	<rect x="28.4" y="11.5" class="st0" width="4.1" height="4.1"/>
	<rect x="36.5" y="18.8" class="st0" width="4.1" height="4.1"/>
	<rect x="38.5" y="10.8" class="st0" width="5.2" height="5.2"/>
	<rect x="32" class="st0" width="5.2" height="5.2"/>
	<rect x="39.1" y="25.9" class="st0" width="5.2" height="5.2"/>
	<rect x="24.8" y="7.2" class="st0" width="2.1" height="2.1"/>
	<rect x="33.8" y="26.2" class="st0" width="2.1" height="2.1"/>
	<rect x="31.9" y="19" class="st0" width="2.1" height="2.1"/>
	<rect x="48.8" y="18.4" class="st0" width="2.1" height="2.1"/>
	<rect x="20.7" y="14.4" class="st0" width="2.1" height="2.1"/>
	<rect x="28.1" y="22.9" class="st0" width="4.1" height="4.1"/>
</g>
</svg>
